<svg width="27" height="17" viewBox="0 0 27 17" fill="none" xmlns="http://www.w3.org/2000/svg">
<path d="M10.875 7.58437C12.3656 6.87187 13.1437 5.79375 13.1437 4.11562C13.1437 0.80625 10.6781 0 7.83281 0H0V16.6125H8.05313C11.0719 16.6125 13.9078 15.1641 13.9078 11.7891C13.9078 9.70312 12.9187 8.16094 10.875 7.58437V7.58437ZM3.65156 2.83594H7.07812C8.39531 2.83594 9.58125 3.20625 9.58125 4.73437C9.58125 6.14531 8.65781 6.7125 7.35469 6.7125H3.65156V2.83594V2.83594ZM7.55625 13.7906H3.65156V9.21563H7.63125C9.23906 9.21563 10.2563 9.88594 10.2563 11.5875C10.2563 13.2656 9.04219 13.7906 7.55625 13.7906V13.7906ZM24.3609 2.50781H17.625V0.871875H24.3609V2.50781V2.50781ZM27 10.7719C27 7.21406 24.9188 4.24687 21.1453 4.24687C17.4797 4.24687 14.9906 7.00312 14.9906 10.6125C14.9906 14.3578 17.3484 16.9266 21.1453 16.9266C24.0188 16.9266 25.8797 15.6328 26.775 12.8813H23.8594C23.5453 13.9078 22.2516 14.4516 21.2484 14.4516C19.3125 14.4516 18.2953 13.3172 18.2953 11.3906H26.9719C26.9859 11.1938 27 10.9828 27 10.7719ZM18.3 9.30938C18.4078 7.72969 19.4578 6.74062 21.0422 6.74062C22.7016 6.74062 23.5359 7.71563 23.6766 9.30938H18.3Z" fill="#030925"/>
</svg>
