<svg width="79" height="29" viewBox="0 0 79 29" fill="none" xmlns="http://www.w3.org/2000/svg">
<path d="M36.588 16.053V14.761H31.192V9.992H37.728V8.7H29.71V22H31.192V16.053H36.588ZM40.16 10.923C40.787 10.923 41.224 10.505 41.224 9.954C41.224 9.403 40.787 8.985 40.16 8.985C39.571 8.985 39.115 9.403 39.115 9.954C39.115 10.505 39.571 10.923 40.16 10.923ZM39.419 22H40.92V12.728H39.419V22ZM47.5471 25.99C50.1121 25.99 51.4231 24.641 51.4231 21.848V12.728H49.9221V14.229C49.4471 13.165 48.4591 12.538 47.0721 12.538C44.9631 12.538 43.4621 13.925 43.4621 16.661V17.896C43.4621 20.613 44.9631 22 47.0721 22C48.4021 22 49.4281 21.43 49.9221 20.29V21.848C49.9221 23.919 49.2001 24.698 47.5091 24.698C46.0651 24.698 45.2861 24.185 45.1151 23.14H43.6711C43.8801 24.964 45.2291 25.99 47.5471 25.99ZM47.4141 13.83C48.9721 13.83 49.9221 14.913 49.9221 16.623V17.782C49.9221 19.739 48.9911 20.708 47.4521 20.708C45.7421 20.708 44.9821 19.606 44.9821 17.858V16.661C44.9821 14.951 45.7421 13.83 47.4141 13.83ZM55.8919 16.718C55.8919 14.894 56.9939 13.83 58.3619 13.83C59.7489 13.83 60.3189 14.609 60.3189 16.148V22H61.8199V16.718C61.8199 14.894 62.9219 13.83 64.2899 13.83C65.6769 13.83 66.2469 14.609 66.2469 16.148V22H67.7479V15.844C67.7479 13.602 66.7029 12.538 64.7839 12.538C63.3779 12.538 62.2379 13.203 61.6299 14.514C61.2879 13.184 60.3379 12.538 58.8559 12.538C57.5449 12.538 56.4619 13.184 55.8919 14.495V12.728H54.3909V22H55.8919V16.718ZM75.8602 22H77.3422V15.844C77.3422 13.583 76.2402 12.538 73.9602 12.538C71.6042 12.538 70.5592 13.697 70.3312 15.407H71.7752C71.8892 14.476 72.4782 13.83 73.8272 13.83C75.3092 13.83 75.8602 14.438 75.8602 16.034V16.813H73.2952C70.9012 16.813 70.0272 17.801 70.0272 19.15V19.72C70.0272 21.24 71.0912 22.19 73.0102 22.19C74.5112 22.19 75.3852 21.696 75.8602 20.708V22ZM73.4472 21.107C72.1362 21.107 71.5092 20.575 71.5092 19.568V19.169C71.5092 18.295 72.0032 17.763 73.4282 17.763H75.8602V18.675C75.8602 20.404 74.9862 21.107 73.4472 21.107Z" fill="#030925"/>
<path d="M4.50196 27.0003C6.98435 27.0003 8.99953 24.9847 8.99953 22.5018V18.0034H4.50196C2.01957 18.0034 0.00439453 20.019 0.00439453 22.5018C0.00439453 24.9847 2.01957 27.0003 4.50196 27.0003Z" fill="#0ACF83"/>
<path d="M0 13.5004C0 11.0175 2.01517 9.00195 4.49757 9.00195H8.99513V18.0035H4.49757C2.01517 18.0035 0 15.988 0 13.5051V13.5004Z" fill="#A259FF"/>
<path d="M0 4.49842C0 2.01556 2.01517 0 4.49757 0H8.99513V9.00156H4.49757C2.01517 9.00156 0 6.986 0 4.50314V4.49842Z" fill="#F24E1E"/>
<path d="M8.95801 0H13.4556C15.938 0 17.9531 2.01556 17.9531 4.49842C17.9531 6.98128 15.938 8.99684 13.4556 8.99684H8.95801V0Z" fill="#FF7262"/>
<path d="M18.0003 13.5004C18.0003 15.9832 15.9852 17.9988 13.5028 17.9988C11.0204 17.9988 8.95801 15.9832 8.95801 13.5004C8.95801 11.0175 10.9732 9.00195 13.4556 9.00195C15.938 9.00195 17.9531 11.0175 17.9531 13.5004H18.0003Z" fill="#1ABCFE"/>
</svg>
