<svg width="21" height="20" viewBox="0 0 21 20" fill="none" xmlns="http://www.w3.org/2000/svg">
<path d="M0 2.32347C0 1.65006 0.236493 1.0945 0.709459 0.656809C1.18243 0.219092 1.7973 0.000244141 2.55405 0.000244141C3.2973 0.000244141 3.89864 0.215719 4.35811 0.646708C4.83107 1.09115 5.06757 1.67026 5.06757 2.38408C5.06757 3.03054 4.83784 3.56925 4.37838 4.00024C3.90541 4.44468 3.28378 4.6669 2.51351 4.6669H2.49324C1.74999 4.6669 1.14866 4.44468 0.689189 4.00024C0.229723 3.55579 0 2.99687 0 2.32347ZM0.263514 20.0002V6.50528H4.76351V20.0002H0.263514ZM7.25676 20.0002H11.7568V12.4649C11.7568 11.9935 11.8108 11.6298 11.9189 11.374C12.1081 10.916 12.3953 10.5288 12.7804 10.2123C13.1655 9.89584 13.6486 9.7376 14.2297 9.7376C15.7432 9.7376 16.5 10.7544 16.5 12.7881V20.0002H21V12.2629C21 10.2696 20.527 8.75781 19.5811 7.7275C18.6351 6.6972 17.3851 6.18205 15.8311 6.18205C14.0878 6.18205 12.7297 6.92953 11.7568 8.42447V8.46488H11.7365L11.7568 8.42447V6.50528H7.25676C7.28378 6.93625 7.2973 8.27631 7.2973 10.5255C7.2973 12.7746 7.28378 15.9329 7.25676 20.0002Z" fill="#030925"/>
</svg>
