<svg width="120" height="30" viewBox="0 0 120 30" fill="none" xmlns="http://www.w3.org/2000/svg">
<path d="M48.127 23H49.742L44.84 9.7H43.282L38.342 23H39.9L41.173 19.542H46.873L48.127 23ZM46.436 18.269H41.572L44.004 11.543L46.436 18.269ZM57.4839 23H58.9659V9.13H57.4839V15.229C56.9899 14.165 56.0209 13.538 54.6339 13.538C52.5059 13.538 51.0239 14.925 51.0239 17.661V19.086C51.0239 21.803 52.5059 23.19 54.6339 23.19C55.9639 23.19 56.9709 22.62 57.4839 21.48V23ZM54.9759 14.83C56.5149 14.83 57.4839 15.913 57.4839 17.623V18.972C57.4839 20.929 56.5339 21.898 54.9949 21.898C53.3039 21.898 52.5249 20.796 52.5249 19.048V17.661C52.5249 15.951 53.3039 14.83 54.9759 14.83ZM65.4863 23.19C67.8993 23.19 69.4763 21.803 69.4763 19.086V17.642C69.4763 14.925 67.8993 13.538 65.4863 13.538C63.0733 13.538 61.5153 14.925 61.5153 17.642V19.086C61.5153 21.803 63.0733 23.19 65.4863 23.19ZM65.4863 14.83C67.1773 14.83 67.9563 15.951 67.9563 17.642V19.067C67.9563 20.796 67.1773 21.898 65.4863 21.898C63.7953 21.898 63.0353 20.796 63.0353 19.067V17.642C63.0353 15.951 63.7953 14.83 65.4863 14.83ZM76.3679 23.19C78.4769 23.19 79.9779 21.803 79.9779 19.086V17.661C79.9779 14.925 78.4769 13.538 76.3679 13.538C75.0379 13.538 74.0119 14.127 73.5179 15.286V9.13H72.0169V23H73.5179V21.499C73.9929 22.544 74.9619 23.19 76.3679 23.19ZM76.0259 21.898C74.4869 21.898 73.5179 20.834 73.5179 19.105V17.756C73.5179 15.818 74.4679 14.83 76.0069 14.83C77.6979 14.83 78.4769 15.951 78.4769 17.68V19.067C78.4769 20.796 77.6979 21.898 76.0259 21.898ZM89.7482 20.226H88.3232C88.1902 21.195 87.5822 21.784 86.4992 21.917C86.3662 21.936 86.2332 21.936 86.0812 21.936C84.4852 21.936 83.7252 20.986 83.6492 19.428C83.6302 19.143 83.6112 18.839 83.6112 18.535H89.8052V17.68C89.8052 14.944 88.3232 13.538 86.0242 13.538C83.6302 13.538 82.0722 14.925 82.0722 17.642V19.086C82.0722 21.803 83.6492 23.19 86.0052 23.19C88.1142 23.19 89.5392 22.145 89.7482 20.226ZM83.6112 17.452C83.6302 15.818 84.3902 14.773 86.0242 14.773C87.6202 14.773 88.3232 15.647 88.3992 17.585H83.7252L83.6112 17.452ZM104.995 23H106.724L102.126 15.951L106.116 9.7H104.482L101.309 14.659L98.0596 9.7H96.3306L100.34 15.856L95.7986 23H97.4326L101.157 17.148L104.995 23ZM108.496 23H112.98C116.115 23 117.787 21.404 117.787 18.326V14.393C117.787 11.372 116.02 9.7 112.904 9.7H108.496V23ZM112.809 10.992C115.165 10.992 116.267 12.303 116.267 14.374V18.345C116.267 20.454 115.355 21.708 112.866 21.708H109.978V10.992H112.809Z" fill="#030925"/>
<g clip-path="url(#clip0_86_1145)">
<path d="M4.95833 0.00292969H23.0417C25.7833 0.00292969 28 2.19479 28 4.90577V22.0946C28 24.8055 25.7833 26.9974 23.0417 26.9974H4.95833C2.21667 26.9974 0 24.8055 0 22.0946V4.90577C0 2.19479 2.21667 0.00292969 4.95833 0.00292969Z" fill="#470137"/>
<path d="M14.7232 7.09742L11.2232 12.8078L14.9565 18.8642C14.9799 18.9104 14.9915 18.9565 14.9799 19.0027C14.9682 19.0488 14.9215 19.0142 14.8515 19.0257H12.1799C11.9932 19.0257 11.8649 19.0142 11.7832 18.8988C11.5382 18.4143 11.2815 17.9414 11.0365 17.4568C10.7915 16.9839 10.5232 16.4993 10.2432 16.0033C9.96319 15.5072 9.68319 15.0112 9.40319 14.5036H9.37986C9.13486 14.9996 8.86652 15.4957 8.59819 15.9918C8.32986 16.4878 8.06152 16.9839 7.80486 17.4684C7.53652 17.9529 7.26819 18.4489 6.99986 18.9219C6.95319 19.0373 6.85986 19.0488 6.73152 19.0488H4.16486C4.11819 19.0488 4.08319 19.0719 4.08319 19.0142C4.07152 18.9681 4.08319 18.9219 4.10652 18.8873L7.73486 13.0039L4.19986 7.08588C4.16486 7.03974 4.15319 6.9936 4.17652 6.97052C4.19986 6.93591 4.24652 6.92438 4.29319 6.92438H6.94152C6.99986 6.92438 7.05819 6.93591 7.10486 6.94745C7.15152 6.97052 7.18652 7.00513 7.22152 7.05128C7.44319 7.54733 7.69986 8.04338 7.96819 8.53943C8.24819 9.03548 8.51652 9.52 8.80819 10.0045C9.08819 10.489 9.34486 10.9735 9.58986 11.4696H9.61319C9.85819 10.962 10.1149 10.466 10.3715 9.98144C10.6282 9.49693 10.8965 9.01241 11.1649 8.5279C11.4332 8.04338 11.6899 7.54733 11.9465 7.07435C11.9582 7.0282 11.9815 6.98206 12.0165 6.95899C12.0632 6.93591 12.1099 6.92438 12.1682 6.93591H14.6299C14.6882 6.92438 14.7465 6.95899 14.7582 7.01667C14.7699 7.0282 14.7465 7.07435 14.7232 7.09742V7.09742ZM20.1132 19.268C19.2499 19.2795 18.3865 19.1065 17.6049 18.7489C16.8699 18.4143 16.2632 17.8606 15.8432 17.18C15.4115 16.4763 15.2015 15.5995 15.2015 14.5497C15.1899 13.6961 15.4115 12.8539 15.8432 12.1156C16.2865 11.3658 16.9282 10.7428 17.6982 10.3275C18.5149 9.87762 19.4949 9.65843 20.6499 9.65843C20.7082 9.65843 20.7899 9.65843 20.8949 9.66997C20.9999 9.68151 21.1165 9.68151 21.2565 9.69304V6.04764C21.2565 5.96688 21.2915 5.92074 21.3732 5.92074H23.7415C23.7999 5.9092 23.8465 5.95535 23.8582 6.00149V17.0069C23.8582 17.2146 23.8699 17.4453 23.8815 17.6991C23.9049 17.9414 23.9165 18.1721 23.9282 18.3682C23.9282 18.4489 23.8932 18.5182 23.8115 18.5528C23.2049 18.8066 22.5632 18.9911 21.9099 19.1065C21.3149 19.2103 20.7199 19.268 20.1132 19.268V19.268ZM21.2565 16.9608V11.8849C21.1515 11.8618 21.0465 11.8388 20.9415 11.8272C20.8132 11.8157 20.6849 11.8041 20.5565 11.8041C20.1015 11.8041 19.6465 11.8964 19.2382 12.1041C18.8415 12.3002 18.5032 12.5886 18.2465 12.9578C17.9899 13.3269 17.8615 13.823 17.8615 14.4228C17.8499 14.8266 17.9199 15.2304 18.0599 15.6111C18.1765 15.9225 18.3515 16.1994 18.5849 16.4301C18.8065 16.6378 19.0749 16.7993 19.3782 16.8916C19.6932 16.9954 20.0199 17.0415 20.3465 17.0415C20.5215 17.0415 20.6849 17.03 20.8365 17.0185C20.9882 17.03 21.1165 17.0069 21.2565 16.9608V16.9608Z" fill="#FF61F6"/>
</g>
<defs>
<clipPath id="clip0_86_1145">
<rect width="28" height="27" fill="white"/>
</clipPath>
</defs>
</svg>
