<svg width="387" height="155" viewBox="0 0 387 155" fill="none" xmlns="http://www.w3.org/2000/svg">
<ellipse cx="62.0147" cy="93" rx="46.0109" ry="45" transform="rotate(-180 62.0147 93)" fill="#B372E6"/>
<g filter="url(#filter0_b_1_1995)">
<path d="M-6.10352e-05 93C-6.10352e-05 109.178 6.53361 124.694 18.1636 136.134C29.7936 147.573 45.5673 154 62.0146 154C78.4619 154 94.2356 147.573 105.866 136.134C117.496 124.694 124.029 109.178 124.029 93L62.0146 93L-6.10352e-05 93Z" fill="#7CAA6A" fill-opacity="0.2"/>
</g>
<path d="M37.1764 100.354C36.5032 101.001 28.7804 101.285 25.9685 101.285C23.1566 101.285 15.4074 101.001 14.7605 100.354C14.1136 99.7081 23.4602 49.4053 25.9685 49.4053C28.4768 49.4053 37.8365 99.7081 37.1764 100.354Z" fill="#37474F"/>
<path d="M37.3214 87.533C35.4204 88.2439 28.3445 91.0744 26.7603 91.8887V90.9452L31.8824 88.0113C33.7826 87.0389 35.6289 85.969 37.4138 84.806C37.493 84.7413 37.4138 84.5733 37.3346 84.625C35.4685 85.4763 33.6645 86.4523 31.9352 87.546C30.1927 88.5412 28.4765 89.5752 26.7603 90.6091C26.7603 88.1922 26.7603 85.7882 26.7603 83.3713C29.553 82.2466 32.2501 80.9069 34.8263 79.3646C34.9187 79.3646 34.8264 79.1579 34.7603 79.1967C31.9977 80.2899 29.3234 81.586 26.7603 83.0741C26.7603 81.7816 26.7603 80.5667 26.7603 79.313C26.6943 72.8506 26.6811 66.3883 26.5095 59.926C28.1861 59.0988 29.9154 58.3621 31.592 57.5349C31.6976 57.5349 31.592 57.2893 31.5128 57.341C29.8098 57.9873 28.1729 58.7627 26.4963 59.4736C26.4039 56.152 26.2719 52.8174 26.0738 49.4958C26.0738 49.4718 26.0641 49.4487 26.0468 49.4318C26.0294 49.4148 26.0059 49.4053 25.9814 49.4053C25.9569 49.4053 25.9334 49.4148 25.9161 49.4318C25.8988 49.4487 25.889 49.4718 25.889 49.4958C25.6646 55.6737 25.6778 61.8646 25.757 68.0556C24.0144 66.6855 22.1662 65.4706 20.3973 64.1782C20.3973 64.1782 20.2652 64.1782 20.3973 64.2816C22.2455 65.6645 23.9748 67.1896 25.8362 68.5596C25.8362 68.9086 25.8362 69.2576 25.8362 69.6065C23.9484 68.7664 22.0342 67.978 20.1332 67.1896C19.988 67.125 19.856 67.3318 20.0012 67.3964C21.9418 68.3141 23.8692 69.2447 25.8362 70.0977C25.889 73.1651 25.9374 76.2283 25.9814 79.2871C26.0474 84.6379 26.1662 89.9887 26.2851 95.3396C22.7647 93.6163 19.1827 91.893 15.5392 90.1697C15.394 90.1051 15.2751 90.2989 15.4203 90.3636C18.9428 92.3421 22.5743 94.1284 26.2983 95.7144C26.3907 100.16 26.4831 104.607 26.5359 109.053C26.548 109.1 26.5759 109.143 26.6154 109.173C26.6549 109.203 26.7036 109.219 26.7537 109.219C26.8038 109.219 26.8525 109.203 26.892 109.173C26.9315 109.143 26.9594 109.1 26.9715 109.053C26.9715 103.379 26.8923 97.7177 26.8791 92.0438C30.5018 90.8207 34.0538 89.4055 37.5194 87.8045C37.6382 87.7657 37.5062 87.4684 37.3214 87.533Z" fill="#455A64"/>
<path d="M5.30675 105.303C5.782 105.755 11.1813 105.962 13.1351 105.962C15.0889 105.962 20.5015 105.755 20.9636 105.303C21.4256 104.85 14.8909 69.708 13.1351 69.708C11.3794 69.708 4.85791 104.85 5.30675 105.303Z" fill="#455A64"/>
<path d="M5.20156 96.3449C6.5217 96.849 11.4854 98.8135 12.5547 99.3951V98.736L8.96392 96.6809C7.63766 96.0014 6.35079 95.2506 5.10915 94.432C5.10915 94.432 5.10915 94.2769 5.10915 94.3157C6.41598 94.907 7.67773 95.5895 8.88471 96.3578C10.0992 97.0558 11.3006 97.7666 12.5019 98.4904C12.5019 96.8102 12.5019 95.13 12.5019 93.4368C10.5485 92.6529 8.66323 91.7149 6.86491 90.6322C6.7989 90.6322 6.86491 90.49 6.86491 90.5159C8.79298 91.2776 10.6597 92.1806 12.4491 93.2171C12.4491 92.3382 12.4491 91.4593 12.4491 90.6322C12.4491 86.1344 12.5151 81.5849 12.6207 77.1C11.459 76.5184 10.2445 76.0144 9.06955 75.4328C9.00355 75.4328 9.06954 75.2647 9.13554 75.2906C10.3237 75.743 11.4722 76.2858 12.6339 76.7899C12.6999 74.4634 12.7923 72.137 12.9375 69.8105H13.0563C13.228 74.1274 13.2016 78.4572 13.1488 82.7352C14.3633 81.7917 15.657 80.9516 16.898 80.034C16.898 80.034 16.9904 80.034 16.898 80.1115C15.5778 81.0679 14.4029 82.1407 13.1092 83.0971C13.1092 83.3427 13.1092 83.5883 13.1092 83.8338C14.4293 83.2393 15.7494 82.6965 17.0696 82.1407C17.1752 82.1407 17.2676 82.2441 17.162 82.2828C15.8419 82.9291 14.4557 83.5753 13.0828 84.1698C13.0828 86.3153 13.0168 88.4608 12.9904 90.6322C12.9904 94.3803 12.8451 98.1156 12.7659 101.851C15.2478 100.558 17.756 99.4209 20.2775 98.2707C20.3699 98.2707 20.4623 98.3482 20.3699 98.3999C17.9047 99.78 15.3665 101.031 12.7659 102.148C12.6999 105.25 12.6339 108.352 12.5943 111.467C12.5943 111.648 12.2907 111.648 12.2907 111.467C12.2907 107.499 12.2907 103.544 12.3567 99.5761C9.82262 98.7204 7.33722 97.7324 4.91113 96.6163C4.99034 96.5 5.06955 96.3449 5.20156 96.3449Z" fill="#37474F"/>
<path d="M33.2228 111.954C33.698 112.406 39.0974 112.613 41.0512 112.613C43.005 112.613 48.4176 112.406 48.8796 111.954C49.3416 111.502 42.8069 76.3594 41.0512 76.3594C39.2954 76.3594 32.7739 111.502 33.2228 111.954Z" fill="#455A64"/>
<path d="M33.1168 102.996C34.437 103.5 39.4007 105.465 40.47 106.046V105.387L36.8792 103.332C35.5529 102.653 34.2661 101.902 33.0244 101.083C33.0244 101.083 33.0244 100.928 33.0244 100.967C34.3313 101.558 35.593 102.241 36.8 103.009C38.0145 103.707 39.2159 104.418 40.4172 105.142C40.4172 103.462 40.4172 101.781 40.4172 100.088C38.4637 99.3043 36.5785 98.3663 34.7802 97.2835C34.7142 97.2835 34.7802 97.1414 34.7802 97.1672C36.7083 97.929 38.575 98.832 40.3644 99.8685C40.3644 98.9896 40.3644 98.1107 40.3644 97.2835C40.3644 92.7858 40.4304 88.2363 40.536 83.7514C39.3743 83.1698 38.1598 82.6658 36.9848 82.0842C36.9188 82.0842 36.9848 81.9161 37.0508 81.942C38.2389 82.3943 39.3875 82.9372 40.5492 83.4412C40.6152 81.1148 40.7076 78.7884 40.8528 76.4619H40.9716C41.1433 80.7788 41.1169 85.1085 41.0641 89.3866C42.2786 88.4431 43.5723 87.603 44.8132 86.6853C44.8132 86.6853 44.9056 86.6853 44.8132 86.7629C43.4931 87.7193 42.3182 88.792 41.0244 89.7485C41.0244 89.994 41.0244 90.2396 41.0244 90.4852C42.3446 89.8907 43.6647 89.3478 44.9849 88.7921C45.0905 88.7921 45.1829 88.8954 45.0773 88.9342C43.7571 89.5804 42.371 90.2267 40.9981 90.8212C40.9981 92.9667 40.932 95.1122 40.9056 97.2835C40.9056 101.032 40.7604 104.767 40.6812 108.502C43.1631 107.21 45.6713 106.072 48.1928 104.922C48.2852 104.922 48.3776 105 48.2852 105.051C45.82 106.431 43.2818 107.683 40.6812 108.799C40.6152 111.901 40.5492 115.003 40.5096 118.118C40.5096 118.299 40.206 118.299 40.206 118.118C40.206 114.15 40.206 110.195 40.272 106.227C37.7379 105.372 35.2525 104.384 32.8264 103.268C32.9056 103.151 32.9848 102.996 33.1168 102.996Z" fill="#37474F"/>
<path d="M147.285 120H154.728V67.1994H164.081V61.8691H154.728V55.1307C154.728 49.3981 155.331 46.6826 159.756 46.6826C160.963 46.6826 162.673 46.8838 163.88 47.1855V41.7546C161.969 41.2517 160.058 41.0506 157.946 41.0506C148.392 41.0506 147.285 47.1855 147.285 55.8347V61.8691H139.843V67.1994H147.285V120ZM177.651 120.905C183.183 120.905 188.111 117.888 191.832 113.563V120H199.174V61.8691H191.832V109.339C188.815 112.658 185.094 115.072 181.574 115.072C177.852 115.072 176.042 112.96 176.042 106.926V61.8691H168.6V108.535C168.6 116.379 171.717 120.905 177.651 120.905ZM211.052 120H218.495V75.3458C221.311 70.7195 224.931 68.6074 229.558 68.6074C230.765 68.6074 232.273 68.9092 233.178 69.2109V61.3662C232.575 61.2656 232.273 61.2656 231.871 61.2656C227.446 61.2656 222.216 63.6794 218.495 69.8143V61.8691H211.052V120ZM249.973 120.905C256.108 120.905 260.332 116.681 261.941 111.954C262.142 113.765 262.746 117.486 263.047 120H269.585C269.283 117.888 269.082 111.451 269.082 108.434V80.1733C269.082 67.0989 265.26 60.9639 254.901 60.9639C243.738 60.9639 239.212 66.596 239.111 78.363L246.352 78.4635V76.4521C246.352 68.8086 249.973 66.4954 254.499 66.4954C260.03 66.4954 261.74 70.0155 261.74 80.5756V84.699C244.643 92.3426 238.307 96.2649 238.307 107.931C238.307 115.173 242.933 120.905 249.973 120.905ZM252.286 114.67C248.766 114.67 245.648 112.256 245.648 106.121C245.648 98.1758 250.275 95.6614 261.74 89.6271V107.73C260.03 110.948 256.611 114.67 252.286 114.67ZM293.165 120.905C302.116 120.905 308.05 115.977 308.05 106.926C308.05 98.8798 303.122 94.2534 298.395 90.0294L290.148 82.6876C286.527 79.3687 285.421 77.0555 285.421 73.5355C285.421 69.1103 288.338 66.4954 292.863 66.4954C297.993 66.4954 300.809 70.116 301.311 77.9607L306.541 76.251C306.139 67.3 301.613 60.9639 292.562 60.9639C284.214 60.9639 278.683 65.6908 278.683 74.0384C278.683 80.2739 281.398 84.2968 286.628 88.6214L294.573 95.4603C299.501 99.5838 301.613 103.305 301.613 107.127C301.613 112.356 298.697 115.374 293.668 115.374C287.734 115.374 284.315 111.451 283.51 102.5L277.375 104.411C278.18 114.469 283.912 120.905 293.165 120.905ZM330.204 120.704C332.215 120.704 334.327 120.503 336.44 120.101V114.469C335.031 114.77 333.422 114.971 332.215 114.971C327.891 114.971 327.086 112.859 327.086 107.227V66.6966H336.741V61.8691H327.086V43.8666H319.744V61.8691H312.604V66.6966H319.744V107.931C319.744 115.374 321.655 120.704 330.204 120.704ZM354.671 120.905C360.806 120.905 365.03 116.681 366.639 111.954C366.84 113.765 367.443 117.486 367.745 120H374.282C373.981 117.888 373.779 111.451 373.779 108.434V80.1733C373.779 67.0989 369.958 60.9639 359.599 60.9639C348.435 60.9639 343.909 66.596 343.809 78.363L351.05 78.4635V76.4521C351.05 68.8086 354.671 66.4954 359.196 66.4954C364.728 66.4954 366.438 70.0155 366.438 80.5756V84.699C349.34 92.3426 343.004 96.2649 343.004 107.931C343.004 115.173 347.631 120.905 354.671 120.905ZM356.984 114.67C353.464 114.67 350.346 112.256 350.346 106.121C350.346 98.1758 354.972 95.6614 366.438 89.6271V107.73C364.728 110.948 361.308 114.67 356.984 114.67Z" fill="#330B52"/>
<path d="M147.267 149V138.621L147.247 136.891H147.327L148.192 138.621L153.241 148.195H154.327L159.376 138.621L160.241 136.891H160.321L160.301 138.621V149H161.206V135.523H159.98L154.971 145.058L153.824 147.33H153.744L152.597 145.058L147.609 135.523H146.362V149H147.267ZM168.591 149.201C171.769 149.201 173.881 147.009 173.881 144.052C173.881 141.115 171.769 138.923 168.591 138.923C165.393 138.923 163.301 141.115 163.301 144.052C163.301 147.009 165.393 149.201 168.591 149.201ZM168.591 148.397C165.614 148.397 164.186 146.687 164.186 144.052C164.186 141.437 165.614 139.727 168.591 139.727C171.568 139.727 172.996 141.437 172.996 144.052C172.996 146.687 171.568 148.397 168.591 148.397ZM176.869 149V144.273C176.869 141.437 178.317 139.727 180.912 139.727C183.326 139.727 184.412 141.095 184.412 143.308V149H185.317V143.368C185.317 140.974 183.909 138.923 181.093 138.923C178.68 138.923 177.191 140.552 176.829 142.242H176.749V139.124H175.964V149H176.869ZM192.453 149.201C195.068 149.201 197.099 147.813 197.099 145.782V145.661H196.214V145.782C196.214 147.431 194.967 148.417 192.433 148.417C189.577 148.417 188.289 146.828 188.209 144.374H197.14C197.2 144.152 197.24 143.831 197.24 143.469C197.24 140.572 195.209 138.923 192.453 138.923C189.275 138.923 187.344 141.115 187.344 144.052C187.344 147.049 189.295 149.201 192.453 149.201ZM192.433 139.687C194.927 139.687 196.416 140.954 196.416 143.267C196.416 143.428 196.416 143.569 196.395 143.73H188.209C188.289 141.276 189.577 139.687 192.433 139.687ZM200.466 152.419C201.793 152.419 202.598 151.937 203.221 150.609L208.733 139.124H207.787L204.75 145.46L203.584 147.914H203.503L202.316 145.46L199.138 139.124H198.173L203.101 148.96L202.457 150.348C202.015 151.253 201.612 151.595 200.526 151.595H199.339V152.419H200.466ZM219.197 149.201C222.737 149.201 224.346 147.451 224.346 145.601C224.346 143.428 222.656 142.543 220.444 142.081L217.909 141.558C215.636 141.055 214.61 140.512 214.61 138.742C214.61 137.072 215.998 136.207 218.855 136.207C221.872 136.207 223.26 137.414 223.26 139.586V139.828H224.165V139.707C224.165 137.354 222.556 135.322 218.875 135.322C215.234 135.322 213.705 137.072 213.705 138.842C213.705 141.095 215.556 141.92 217.668 142.362L220.222 142.885C222.395 143.368 223.441 143.991 223.441 145.701C223.441 147.471 221.993 148.336 219.197 148.336C215.898 148.336 214.47 147.109 214.47 144.937V144.695H213.565V144.816C213.565 147.21 215.254 149.201 219.197 149.201ZM229.043 149.201C231.396 149.201 233.247 148.115 233.891 146.204H233.951V149H234.735V142.684C234.735 140.632 233.529 138.923 230.632 138.923C227.675 138.923 226.066 140.612 226.066 142.563V142.664H226.951V142.563C226.951 140.632 228.238 139.727 230.592 139.727C232.945 139.727 233.891 140.632 233.891 142.785V143.67L229.003 144.233C227.273 144.434 225.825 145.058 225.825 146.727C225.825 148.296 227.152 149.201 229.043 149.201ZM226.71 146.667C226.71 145.44 227.575 145.037 229.325 144.856L233.891 144.333V144.514C233.891 147.19 231.698 148.457 229.184 148.457C227.454 148.457 226.71 147.833 226.71 146.667ZM242.136 149L246.944 139.124H245.998L241.654 148.115H241.573L237.208 139.124H236.263L241.07 149H242.136ZM249.431 137.756V135.523H248.526V137.756H249.431ZM249.431 149V139.124H248.526V149H249.431ZM252.986 149V144.273C252.986 141.437 254.434 139.727 257.029 139.727C259.443 139.727 260.529 141.095 260.529 143.308V149H261.434V143.368C261.434 140.974 260.026 138.923 257.21 138.923C254.796 138.923 253.308 140.552 252.946 142.242H252.865V139.124H252.081V149H252.986ZM268.248 148.256C270.541 148.256 272.11 147.109 272.553 145.56H272.633V148.256C272.633 150.911 271.486 151.836 268.691 151.836C266.438 151.836 265.01 151.032 265.01 149.08H264.125C264.125 151.293 266.176 152.621 268.67 152.621C271.466 152.621 273.518 151.414 273.518 148.236V139.124H272.734V141.719H272.673C272.251 139.948 270.521 138.923 268.409 138.923C265.352 138.923 263.461 140.894 263.461 143.589C263.461 146.264 265.291 148.256 268.248 148.256ZM264.366 143.589C264.366 140.713 266.196 139.727 268.53 139.727C270.963 139.727 272.633 141.095 272.633 143.267V143.65C272.633 145.983 271.024 147.451 268.409 147.451C266.156 147.451 264.366 146.486 264.366 143.589ZM280.997 149V138.621L280.977 136.891H281.058L281.922 138.621L286.971 148.195H288.057L293.106 138.621L293.971 136.891H294.051L294.031 138.621V149H294.937V135.523H293.71L288.701 145.058L287.554 147.33H287.474L286.328 145.058L281.339 135.523H280.092V149H280.997ZM300.249 149.201C302.602 149.201 304.453 148.115 305.097 146.204H305.157V149H305.941V142.684C305.941 140.632 304.735 138.923 301.838 138.923C298.881 138.923 297.272 140.612 297.272 142.563V142.664H298.157V142.563C298.157 140.632 299.445 139.727 301.798 139.727C304.151 139.727 305.097 140.632 305.097 142.785V143.67L300.209 144.233C298.479 144.434 297.031 145.058 297.031 146.727C297.031 148.296 298.358 149.201 300.249 149.201ZM297.916 146.667C297.916 145.44 298.781 145.037 300.531 144.856L305.097 144.333V144.514C305.097 147.19 302.904 148.457 300.39 148.457C298.66 148.457 297.916 147.833 297.916 146.667ZM312.759 149.201C314.911 149.201 316.621 147.994 317.124 146.003H317.205V149H317.969V135.523H317.084V141.92H317.003C316.541 140.21 314.992 138.923 312.659 138.923C309.581 138.923 307.791 141.115 307.791 144.052C307.791 147.009 309.561 149.201 312.759 149.201ZM308.696 144.052C308.696 140.834 310.466 139.747 312.84 139.747C315.475 139.747 317.084 141.377 317.084 144.052V144.253C317.084 146.808 315.374 148.376 312.88 148.376C310.426 148.376 308.696 147.29 308.696 144.052ZM325.181 149.201C327.796 149.201 329.828 147.813 329.828 145.782V145.661H328.943V145.782C328.943 147.431 327.695 148.417 325.161 148.417C322.305 148.417 321.017 146.828 320.937 144.374H329.868C329.928 144.152 329.968 143.831 329.968 143.469C329.968 140.572 327.937 138.923 325.181 138.923C322.003 138.923 320.072 141.115 320.072 144.052C320.072 147.049 322.023 149.201 325.181 149.201ZM325.161 139.687C327.655 139.687 329.144 140.954 329.144 143.267C329.144 143.428 329.144 143.569 329.124 143.73H320.937C321.017 141.276 322.305 139.687 325.161 139.687ZM345.852 149V148.175H336.901V142.624H345.551V141.819H336.901V136.348H345.852V135.523H335.996V149H345.852ZM350.692 149.201C353.046 149.201 354.896 148.115 355.54 146.204H355.6V149H356.385V142.684C356.385 140.632 355.178 138.923 352.282 138.923C349.325 138.923 347.716 140.612 347.716 142.563V142.664H348.601V142.563C348.601 140.632 349.888 139.727 352.241 139.727C354.595 139.727 355.54 140.632 355.54 142.785V143.67L350.652 144.233C348.922 144.434 347.474 145.058 347.474 146.727C347.474 148.296 348.802 149.201 350.692 149.201ZM348.359 146.667C348.359 145.44 349.224 145.037 350.974 144.856L355.54 144.333V144.514C355.54 147.19 353.348 148.457 350.833 148.457C349.103 148.457 348.359 147.833 348.359 146.667ZM363.122 149.201C365.516 149.201 367.346 148.316 367.346 146.445C367.346 144.856 366.139 144.173 364.208 143.891L361.694 143.509C359.924 143.247 359.321 142.825 359.321 141.658C359.321 140.27 360.326 139.687 362.639 139.687C365.395 139.687 366.32 140.612 366.32 142.322V142.423H367.205V142.382C367.205 140.089 365.355 138.923 362.66 138.923C360.165 138.923 358.435 139.908 358.435 141.658C358.435 143.287 359.602 143.931 361.332 144.193L363.927 144.575C365.737 144.856 366.461 145.279 366.461 146.486C366.461 147.813 365.576 148.417 363.122 148.417C360.447 148.417 359.321 147.713 359.321 145.802V145.701H358.435V145.741C358.435 148.014 360.185 149.201 363.122 149.201ZM370.555 152.419C371.883 152.419 372.687 151.937 373.311 150.609L378.822 139.124H377.877L374.839 145.46L373.673 147.914H373.592L372.406 145.46L369.228 139.124H368.262L373.19 148.96L372.546 150.348C372.104 151.253 371.702 151.595 370.615 151.595H369.429V152.419H370.555Z" fill="#330B52" fill-opacity="0.5"/>
<defs>
<filter id="filter0_b_1_1995" x="-16.4738" y="76.5262" width="156.977" height="93.9476" filterUnits="userSpaceOnUse" color-interpolation-filters="sRGB">
<feFlood flood-opacity="0" result="BackgroundImageFix"/>
<feGaussianBlur in="BackgroundImageFix" stdDeviation="8.23689"/>
<feComposite in2="SourceAlpha" operator="in" result="effect1_backgroundBlur_1_1995"/>
<feBlend mode="normal" in="SourceGraphic" in2="effect1_backgroundBlur_1_1995" result="shape"/>
</filter>
</defs>
</svg>
